<svg xmlns="http://www.w3.org/2000/svg" fill="none" viewBox="0 0 128 128" id="Typescript-Icon-Round--Streamline-Svg-Logos" height="128" width="128">
  <desc>
    Typescript Icon Round Streamline Icon: https://streamlinehq.com
  </desc>
  <path fill="#3178c6" d="M64 1.3333333333333333c34.60986666666666 0 62.666666666666664 28.0568 62.666666666666664 62.666666666666664S98.60986666666668 126.66666666666666 64 126.66666666666666 1.3333333333333333 98.60986666666668 1.3333333333333333 64 29.39013333333333 1.3333333333333333 64 1.3333333333333333Z" stroke-width="1.3333"></path>
  <path fill="#ffffff" d="M70.10173333333333 80.0152v12.254266666666666c1.9665333333333335 1.0213333333333332 4.292133333333333 1.7874666666666665 6.976533333333333 2.2981333333333334 2.6847999999999996 0.5106666666666666 5.514666666666667 0.7657333333333334 8.489333333333333 0.7657333333333334 2.8988 0 5.653199999999999 -0.28106666666666663 8.262266666666665 -0.8425333333333334 2.6089333333333333 -0.5616 4.8968 -1.4869333333333332 6.862933333333332 -2.7763999999999998 1.966133333333333 -1.2892 3.523066666666667 -2.974266666666667 4.670133333333333 -5.055066666666667 1.1470666666666665 -2.0806666666666667 1.7204 -4.6524 1.7204 -7.716266666666667 0 -2.2211999999999996 -0.3274666666666667 -4.167866666666667 -0.9830666666666665 -5.8402666666666665 -0.6556 -1.6718666666666666 -1.6009333333333333 -3.1592000000000002 -2.836133333333333 -4.4610666666666665 -1.2351999999999999 -1.3022666666666667 -2.7162666666666664 -2.4699999999999998 -4.443066666666667 -3.504 -1.7266666666666666 -1.0339999999999998 -3.6742666666666666 -2.0106666666666664 -5.842133333333333 -2.9295999999999998 -1.5882666666666667 -0.6638666666666666 -3.0124 -1.3086666666666666 -4.273066666666667 -1.9338666666666664 -1.2602666666666666 -0.6257333333333333 -2.3314666666666666 -1.2635999999999998 -3.2141333333333333 -1.9147999999999998 -0.8822666666666665 -0.6510666666666667 -1.5627999999999997 -1.3404 -2.0416 -2.0679999999999996 -0.4793333333333333 -0.7274666666666666 -0.7186666666666667 -1.5509333333333333 -0.7186666666666667 -2.4698666666666664 0 -0.8426666666666667 0.21439999999999998 -1.6019999999999999 0.6427999999999999 -2.2785333333333333 0.4289333333333333 -0.6766666666666665 1.0334666666666665 -1.2576 1.8149333333333333 -1.7426666666666666 0.7818666666666667 -0.48506666666666665 1.7394666666666665 -0.8615999999999999 2.873866666666667 -1.1297333333333333 1.1342666666666665 -0.268 2.3949333333333334 -0.40199999999999997 3.7814666666666668 -0.40199999999999997 1.0085333333333333 0 2.0734666666666666 0.07653333333333333 3.1950666666666665 0.22973333333333334 1.1221333333333332 0.1532 2.2501333333333333 0.3893333333333333 3.3845333333333336 0.7083999999999999 1.1342666666666665 0.3192 2.237333333333333 0.7213333333333334 3.308533333333333 1.2062666666666666 1.0712 0.48519999999999996 2.0606666666666666 1.0468 2.9684 1.6852v-11.450399999999998c-1.8404 -0.7148 -3.8506666666666662 -1.2445333333333333 -6.031199999999999 -1.5892 -2.1806666666666663 -0.3446666666666667 -4.6823999999999995 -0.5170666666666666 -7.505866666666667 -0.5170666666666666 -2.873866666666667 0 -5.5964 0.31279999999999997 -8.167733333333333 0.9382666666666666 -2.5711999999999997 0.6254666666666666 -4.8336 1.6019999999999999 -6.787466666666667 2.9295999999999998 -1.954 1.3276 -3.4976000000000003 3.0189333333333335 -4.632 5.074133333333333 -1.1343999999999999 2.0552 -1.7018666666666666 4.512266666666666 -1.7018666666666666 7.372 0 3.6508000000000003 1.04 6.765066666666667 3.119733333333333 9.343599999999999 2.0797333333333334 2.5786666666666664 5.237066666666666 4.761733333333333 9.4724 6.548666666666667 1.6636 0.6893333333333334 3.2141333333333333 1.3659999999999999 4.651066666666667 2.0298666666666665 1.4364 0.6633333333333333 2.678 1.3526666666666665 3.724266666666667 2.0674666666666663 1.0462666666666665 0.7153333333333333 1.8716 1.4937333333333334 2.4768 2.3364 0.6050666666666666 0.8425333333333334 0.9077333333333333 1.7995999999999999 0.9077333333333333 2.8718666666666666 0 0.7916 -0.18906666666666666 1.5254666666666665 -0.5674666666666666 2.2021333333333333 -0.37799999999999995 0.6765333333333332 -0.9513333333333334 1.2635999999999998 -1.7204 1.7614666666666665 -0.7686666666666666 0.498 -1.7268 0.8872 -2.873866666666667 1.1681333333333332 -1.1470666666666665 0.2805333333333333 -2.4894666666666665 0.4210666666666667 -4.0268 0.4210666666666667 -2.6217333333333332 0 -5.218533333333333 -0.46599999999999997 -7.7897333333333325 -1.3977333333333333 -2.5713333333333335 -0.9317333333333333 -4.9536 -2.329466666666667 -7.146933333333333 -4.193333333333333ZM49.1708 49.577466666666666h15.808399999999999v-10.056666666666667H20.916666666666664v10.056666666666667h15.731066666666665v44.77666666666667h12.523066666666667V49.577466666666666Z" stroke-width="1.3333"></path>
</svg>